<svg width="24" height="24" viewBox="0 0 24 24" fill="none" xmlns="http://www.w3.org/2000/svg">
    <path fill-rule="evenodd" clip-rule="evenodd" d="M7 2C5.34315 2 4 3.34315 4 5V19C4 20.6569 5.34315 22 7 22H17C18.6569 22 20 20.6569 20 19V5C20 3.34315 18.6569 2 17 2H7ZM6 4C6 3.44772 6.44772 3 7 3H17C17.5523 3 18 3.44772 18 4V19C18 19.5523 17.5523 20 17 20H7C6.44772 20 6 19.5523 6 19V4Z" fill="#000000"/>
    <path d="M11 16C11 15.4477 11.4477 15 12 15C12.5523 15 13 15.4477 13 16C13 16.5523 12.5523 17 12 17C11.4477 17 11 16.5523 11 16Z" fill="#000000"/>
</svg>
